inDegrees=no
num_controls=7
num_derivatives=13
num_iterations=102
num_multipliers=7
num_parameters=0
num_slacks=7
num_states=26
objective=5.298660
objective_accelerations=0.700887
objective_balance=0.063663
objective_effort=0.500607
objective_height=3.991639
objective_ligament=0.041864
solver_duration=1075.554618
status=Solve_Succeeded
success=true
DataType=double
version=3
OpenSimVersion=4.4-2022-07-23-0e9fedc
endheader
time	/jointset/ground_pelvis/pelvis_tilt/value	/jointset/ground_pelvis/pelvis_tx/value	/jointset/ground_pelvis/pelvis_ty/value	/jointset/hip_l/hip_flexion_l/value	/jointset/hip_l/hip_adduction_l/value	/jointset/hip_l/hip_rotation_l/value	/jointset/back/lumbar_extension/value	/jointset/patellofemoral_l/patellar_flexion_l/value	/jointset/knee_l/knee_flexion_l/value	/jointset/knee_l/knee_adduction_l/value	/jointset/knee_l/knee_rotation_l/value	/jointset/ankle_l/ankle_angle_l/value	/jointset/subtalar_l/subtalar_angle_l/value	/jointset/ground_pelvis/pelvis_tilt/speed	/jointset/ground_pelvis/pelvis_tx/speed	/jointset/ground_pelvis/pelvis_ty/speed	/jointset/hip_l/hip_flexion_l/speed	/jointset/hip_l/hip_adduction_l/speed	/jointset/hip_l/hip_rotation_l/speed	/jointset/back/lumbar_extension/speed	/jointset/patellofemoral_l/patellar_flexion_l/speed	/jointset/knee_l/knee_flexion_l/speed	/jointset/knee_l/knee_adduction_l/speed	/jointset/knee_l/knee_rotation_l/speed	/jointset/ankle_l/ankle_angle_l/speed	/jointset/subtalar_l/subtalar_angle_l/speed	/forceset/tau_hip_flexion_l	/forceset/tau_hip_adduction_l	/forceset/tau_hip_rotation_l	/forceset/tau_knee_flexion_l	/forceset/tau_ankle_angle_l	/forceset/tau_subtalar_angle_l	/forceset/tau_lumbar_extension	lambda_cid13_p0	lambda_cid13_p1	lambda_cid13_p2	lambda_cid13_p3	lambda_cid13_p4	lambda_cid13_p5	lambda_cid14_p0	/jointset/ground_pelvis/pelvis_tilt/accel	/jointset/ground_pelvis/pelvis_tx/accel	/jointset/ground_pelvis/pelvis_ty/accel	/jointset/hip_l/hip_flexion_l/accel	/jointset/hip_l/hip_adduction_l/accel	/jointset/hip_l/hip_rotation_l/accel	/jointset/back/lumbar_extension/accel	/jointset/patellofemoral_l/patellar_flexion_l/accel	/jointset/knee_l/knee_flexion_l/accel	/jointset/knee_l/knee_adduction_l/accel	/jointset/knee_l/knee_rotation_l/accel	/jointset/ankle_l/ankle_angle_l/accel	/jointset/subtalar_l/subtalar_angle_l/accel	gamma_cid13_p0	gamma_cid13_p1	gamma_cid13_p2	gamma_cid13_p3	gamma_cid13_p4	gamma_cid13_p5	gamma_cid14_p0
0	-0.1554063658814681	0.05680106538323649	0.8978415166846599	0.3774920279260975	-0.2613652188462258	-0.2343047572960958	-0.0126506700172305	0.03223623128436068	0.03223623128433527	-0.1745325085585346	0.1376360534758041	-0.04231376238535053	-0.01194204897440993	0	0	0	0	0	0	0	0	0	0	0	0	0	0.1382089993472864	-0.0644163638121263	-0.03980897141342009	-0.2712596767597992	0.2604493315767755	-0.03404607631519711	-0.09077768800965372	43.22154143775554	2.717051087101499	4.306068613553361	3.240757126463558	-571.5003630258069	-67.59394605405291	-37.97366296085956	-2.860446030687674	-2.564907534193519	-1.296981725176381	16.46030049570662	-0.4408517112338348	4.41608273613159	-7.949519118720072	17.40766275198747	17.40766275199278	3.173569535478908	1.430380802425511	4.787305602191108	0.6013333271988048	-4.859559664861719e-09	4.944755029699553e-07	-3.215377028200209e-08	1.155048743431431e-08	2.853247760597442e-07	7.723673266185417e-08	4.420683503862758e-08
0.01	-0.1555415238753458	0.05667450096817996	0.897778301089724	0.3782946555233211	-0.2613868723719034	-0.2340832733619655	-0.01304850459137993	0.03308909214350946	0.03308909214354817	-0.1743765652049966	0.1377011940717656	-0.04207965799707686	-0.01191281179250021	-0.02684952464363669	-0.02518229150613753	-0.01260761892636291	0.1596966429210999	-0.004279539812957252	0.0440601046617229	-0.07897386706240103	0.1697506934455446	0.1697506934455573	0.03106262247892119	0.01295493413043207	0.04660829611620194	0.005848829258713916	0.1309934867591555	-0.07255801199743553	-0.03841578670430842	-0.2633128206380311	0.248047585072712	-0.02115615671676708	-0.08476375358260443	39.66767560510227	-2.050249110730433	4.827906777632369	4.690316108289469	-573.0411818271607	-76.69040368083759	-37.99941735094907	-2.569905305804681	-2.475298925334807	-1.237269902341498	15.6000088199485	-0.4139175277327589	4.365499675425387	-7.782363333112288	16.63554204114532	16.63554204114421	3.053784425556803	1.217109542515311	4.565708763572066	0.5767928141783301	-4.788535938835545e-08	5.743166040748595e-07	8.629751776574402e-08	7.67065889322438e-08	5.686789007274841e-09	3.325267747436012e-08	4.360111402088307e-08
0.02	-0.1559397170406219	0.05630003184475732	0.8975900857203294	0.3806693820756294	-0.2614498037779832	-0.2334282833123531	-0.01421828640278852	0.03561481381724466	0.03561481381724288	-0.1739137604621076	0.1378936959737279	-0.04138584721819213	-0.0118250593002095	-0.05260703427123105	-0.04958094167322186	-0.02499995489177168	0.3144197910276634	-0.008255576082145359	0.08670122309275499	-0.1543894474491616	0.3345721629033829	0.334572162903393	0.06137227781615359	0.02547226122741431	0.09194127812188377	0.01170306207624861	0.1237779741707899	-0.08069966018279943	-0.03702260199596012	-0.2553659645162595	0.2356458385686165	-0.008266237118387495	-0.07874981915570853	36.26349110682125	-6.838402978169611	5.34695738158801	5.835333100720674	-572.348312989202	-85.55852924053377	-38.07519739616869	-2.642043027478266	-2.408179266383729	-1.253925132985572	15.46560153279946	-0.3801510024800719	4.132285489993333	-7.23786178359142	16.42181795444636	16.42181795444861	3.022976107141041	1.342859395735645	4.53224278008607	0.6024140389626627	-9.091115911184919e-08	6.541577051797639e-07	2.047488058134901e-07	1.418626904301733e-07	-2.739511980451945e-07	-1.073137771313394e-08	4.299539300313856e-08
0.03	-0.1565907145053977	0.05568611452596346	0.8972784226201712	0.3845667781638504	-0.2615504976054943	-0.2323549765735619	-0.01612363661441277	0.03976444979786216	0.03976444979782505	-0.1731513349174755	0.1382096603479387	-0.04024427396790357	-0.01167812893835671	-0.07741707684466408	-0.07300682061458018	-0.03734383484689981	0.4641544507465881	-0.01180565923506411	0.1276973951290533	-0.2260732307220546	0.4945033134638009	0.4945033134638324	0.09097564005056719	0.03761083811515306	0.1362210383017653	0.01771947038900247	0.1178718056884206	-0.0755602049496595	-0.03632434733465249	-0.2518456236833962	0.2332562385253827	-0.01047202388376567	-0.07348955716957249	35.50095288341519	-5.837790929392598	5.291233304457946	5.136334818333216	-571.713596829843	-82.53349041990161	-38.19771098687193	-2.374178501977865	-2.280408353821147	-1.226350802949427	14.59164411888264	-0.3309385962681773	4.043866571172773	-7.042531974473937	15.65099704756988	15.65099704757169	2.908573568738375	1.132897512576044	4.352999639702282	0.6065971656632024	-1.156124256411772e-07	5.755978153293345e-07	2.593938879108853e-07	1.793494732012526e-07	-4.775801940670452e-07	-5.046722542521618e-08	3.324331003711464e-08
0.04	-0.1574845511218932	0.05484381518859179	0.8968429744452265	0.3899343700347173	-0.2616843925894484	-0.2308795914122631	-0.01872760373384453	0.04548784397219822	0.04548784397219655	-0.1720969642931022	0.1386437186265415	-0.03866447171526351	-0.01146996590573051	-0.1011748646060155	-0.09525734538878317	-0.04975696984904859	0.6084589475632529	-0.01489580737080958	0.1671169075943245	-0.2941128290082549	0.6493238016534316	0.6493238016534723	0.1197612937708587	0.04909104209421959	0.1795870785921597	0.02394959623101466	0.1119656372060667	-0.07042074971647741	-0.03562609267307314	-0.2483252828505595	0.2308666384821688	-0.01267781064910207	-0.06822929518344577	34.87115361032866	-4.850822516999362	5.226724113350424	4.156578516523412	-569.1119869840501	-79.28859491951074	-38.362698763015	-2.431592065061031	-2.173108432953467	-1.267776142389715	14.37956895234761	-0.288163999045376	3.816953575787808	-6.509024786252352	15.39968548028902	15.39968548028881	2.859434404316695	1.211184814001289	4.349498802187727	0.6451575448141408	-1.399358667438214e-07	4.93771925665393e-07	3.127233781330155e-07	2.162657545552835e-07	-6.796419943975432e-07	-9.011548123058894e-08	2.330264228865197e-08
0.05	-0.1586115196015553	0.05378458438662296	0.8962824026090812	0.3967199583800209	-0.2618467885797994	-0.229019219394204	-0.02199342875564742	0.05273531975189694	0.05273531975191024	-0.1707589298278033	0.1391905394553648	-0.0366555916777806	-0.01119836094668201	-0.1240404113723913	-0.1164179630090221	-0.0624156121692116	0.7478029281536547	-0.01750097736493873	0.2046869240143099	-0.3584998220938266	0.7993341972345754	0.7993341972345694	0.1476836146853842	0.06013288281175488	0.2219960825149486	0.03040051104904821	0.1052379575441982	-0.06852223003271832	-0.03466378908059205	-0.2439566904120859	0.2253602443679804	-0.01055309437125963	-0.06255708437344415	33.39957554693115	-5.507102000055136	5.321274527158537	4.017185312048787	-566.3942525122337	-79.23242316734698	-38.56489705439461	-2.187263179123014	-2.061867077790005	-1.273778056457683	13.58343848019505	-0.2344401273934868	3.686407590220183	-6.320683579462798	14.67613845901731	14.67613845901052	2.734451847919214	1.029625438865097	4.157677756676677	0.6493138778746125	-1.471423836920819e-07	3.479350323000551e-07	3.377118407762881e-07	2.242088489229564e-07	-7.683828400078878e-07	-1.331338806499332e-07	9.413791270667152e-09
0.06	-0.1599617889882607	0.05251888167820334	0.8955934703938082	0.4048733117047547	-0.2620327855956464	-0.2267912708289122	-0.02588655311026595	0.06145778385982974	0.06145778385982716	-0.1691465079707215	0.1398435670389595	-0.03422840628719914	-0.01086139575393818	-0.1458350460064944	-0.13655172667894	-0.07542904567458592	0.882011943456398	-0.01961601247093046	0.2406322170389409	-0.4195726955694124	0.9443214672953272	0.9443214672952766	0.174638772115855	0.07033239305871974	0.2632481492118144	0.03702164297014553	0.09851027788224581	-0.06662371034899062	-0.03370148548841102	-0.2395880979736267	0.21985385025377	-0.008428378093448693	-0.05688487356348365	32.04023704929553	-6.176827687370693	5.410882702515884	3.631509911750885	-562.0230822065653	-78.98858505319795	-38.79843535354971	-2.217409638605634	-1.967737642890017	-1.338734379431981	13.35257589481606	-0.1901370214178584	3.492008896716808	-5.846200864254663	14.39506037621075	14.39506037621091	2.666001707505834	1.042718719887302	4.118111357002235	0.6792009654267346	-1.536281880443683e-07	1.994029387788689e-07	3.615069969951877e-07	2.309320196280457e-07	-8.523522769984365e-07	-1.762941808530235e-07	-4.641299042876481e-09
0.07000000000000001	-0.1615255547048154	0.05105708526273856	0.8947721548345603	0.4143447267204357	-0.2622373449765537	-0.2242131593705313	-0.03037289189615779	0.071606358642886	0.0716063586428832	-0.1672692463412307	0.1405955908700318	-0.0313939617520929	-0.01045711195585281	-0.1667403552291744	-0.1556197633353004	-0.08892173242879443	1.011408145953199	-0.02120113941912875	0.2746943069953651	-0.4771404099713067	1.084558784043639	1.084558784043598	0.2006515622682232	0.07992684636029376	0.3034585284191742	0.04387887398158085	0.09177191516882631	-0.06380348649446715	-0.03286355764537609	-0.2363941181278899	0.2159012182362171	-0.007201030177104205	-0.05116842503630624	31.12600778992233	-6.536149150185381	5.452585991489508	2.963109607477143	-557.9841769534662	-78.03826734899799	-39.05667292094385	-2.000414101053551	-1.848121449256087	-1.36785724978383	12.60370339793258	-0.1285562723655079	3.318891154015463	-5.628858981158594	13.71286263212558	13.71286263212689	2.544692168740127	0.8959310023150501	3.945165631965305	0.6954776200549205	-1.504546696969143e-07	-9.521735499854637e-08	3.800616789678446e-07	2.109493595261148e-07	-8.713229363064847e-07	-2.597813148647039e-07	-3.278360002629096e-08
0.08	-0.1632930380210238	0.04941025152625859	0.8938132481224963	0.4250842159552217	-0.2624549267751108	-0.2213033105908015	-0.03541826827667693	0.08313226565502981	0.0831322656550276	-0.1651367019102832	0.1414391837075109	-0.02816288053904071	-0.00998295715744278	-0.186578565929889	-0.1735591908819784	-0.1029472762378179	1.135626787282808	-0.0222204960011198	0.3069796813081928	-0.5313802144931634	1.219787913111317	1.219787913111283	0.2256953324061071	0.0886461943427804	0.3425754848010244	0.05099584303513543	0.0850335524554026	-0.06098326263992489	-0.0320256298024401	-0.2332001382821417	0.2119485862186738	-0.005973682260737927	-0.04545197650913638	30.30322546805754	-6.904625033406181	5.487918658526463	2.083428081558458	-552.611975306892	-76.93017708916821	-39.3325457429685	-2.003989934211746	-1.742015820954229	-1.445305790394987	12.31706366137768	-0.07698294817636538	3.136665767997379	-5.180618888246656	13.39342284008418	13.39342284008362	2.472197704609087	0.8676976560699182	3.899426791899528	0.7311485738504437	-1.466579692397996e-07	-3.992626939537825e-07	3.982782658278407e-07	1.892437425979246e-07	-8.861001260866297e-07	-3.458701800898416e-07	-6.183475331098738e-08
0.09	-0.1652544157067454	0.04758961641572079	0.892711030971149	0.4370417611093204	-0.2626799434221844	-0.2180805020319177	-0.04098871021246447	0.09598676536995054	0.09598676536993385	-0.1627586495312684	0.1423667852166297	-0.02454582462878489	-0.009436317190998508	-0.2055200980150968	-0.1903795888472568	-0.1176055137221574	1.255037535931832	-0.02268568108765606	0.3372849367393017	-0.5821706921431831	1.35028682477148	1.35028682477152	0.249751959543336	0.09671364299076383	0.3806446293104447	0.05837844627552582	0.07811931217378319	-0.05826779373236013	-0.03122852869869912	-0.2304534015459774	0.2079977315850821	-0.004322157338051574	-0.03963110630150612	29.46753085758105	-7.439399921558544	5.531873666426237	1.338826749449131	-547.6383507055116	-76.09949307398995	-39.61852296201626	-1.812683714124217	-1.623777931433678	-1.49266413991664	11.62637636928176	-0.01669085238131112	2.932805321745538	-4.947640123958239	12.75435740067158	12.75435740068297	2.347894255523943	0.7521094451099946	3.731987363163392	0.7487825190551378	-1.440019428888823e-07	-7.528944353038871e-07	4.538555511225313e-07	1.569870064962823e-07	-8.800676304032615e-07	-4.751923954049645e-07	-9.926169413483137e-08
